<?xml version="1.0" encoding="UTF-8"?><svg id="Laag_2" xmlns="http://www.w3.org/2000/svg" viewBox="0 0 66 59.21"><defs><style>.cls-1{fill:#ede7df;}.cls-2{fill:none;stroke:#335280;stroke-miterlimit:10;stroke-width:7px;}</style></defs><g id="Laag_1-2"><ellipse class="cls-2" cx="33" cy="29.6" rx="29.5" ry="26.1"/><path class="cls-1" d="M32.5,32.8c8.75,8.88,10.73,13.93,10.74,15.64-1.03,.81-4.53,2.06-9.78,2.06-6.13,0-10.26-1.65-11.3-2.62,0-.84,.6-5.19,10.33-15.08M51.4,7.71H13.51s9.6,6.76,18.98,15.37c9.31-8.57,18.91-15.37,18.91-15.37h0Zm-18.91,15.37c-9.89,9.1-19.47,20.2-16.92,27.3,1.69,4.69,9.89,7.12,17.88,7.12s15.43-2.32,16.56-7.12c1.74-7.41-7.78-18.35-17.53-27.3h0Z"/></g></svg>